<svg width="57" height="75" viewBox="0 0 57 75" fill="none" xmlns="http://www.w3.org/2000/svg">
<path d="M14.1421 31.8579C6.33082 39.6692 6.33082 52.3308 14.1421 60.1421C21.9535 67.9535 34.6151 67.9535 42.4264 60.1421C50.2377 52.3308 50.2377 39.6692 42.4264 31.8579C34.6151 24.0465 21.9535 24.0465 14.1421 31.8579ZM40.2498 57.9656C33.6428 64.5726 22.9257 64.5726 16.3187 57.9656C9.71167 51.3585 9.71167 40.6415 16.3187 34.0344C22.9257 27.4274 33.6428 27.4274 40.2498 34.0344C46.8569 40.6415 46.8569 51.3585 40.2498 57.9656ZM27.3426 58.5891C27.6587 59.4738 28.9099 59.4738 29.226 58.5891L33.6055 46.3309C33.6832 46.1134 33.6832 45.8756 33.6055 45.658L29.226 33.3999C28.9099 32.5151 27.6587 32.5151 27.3426 33.3999L22.9631 45.658C22.8853 45.8756 22.8853 46.1134 22.9631 46.3309L27.3426 58.5891ZM30.1562 46C30.8387 46 31.3207 46.6687 31.1048 47.3162L29.2274 52.9485C28.9235 53.8602 27.634 53.8602 27.3301 52.9485L25.4526 47.3162C25.2368 46.6687 25.7188 46 26.4013 46H30.1562Z" fill="#414141" fill-opacity="0.4"/>
<path d="M32.2643 5.22C32.6003 5.22 32.8643 5.328 33.0563 5.544C33.2603 5.748 33.3623 6.024 33.3623 6.372V16.938C33.3623 17.286 33.2603 17.568 33.0563 17.784C32.8523 18 32.5883 18.108 32.2643 18.108C31.8803 18.108 31.5863 17.97 31.3823 17.694L24.8123 9.144V16.938C24.8123 17.286 24.7163 17.568 24.5243 17.784C24.3323 18 24.0683 18.108 23.7323 18.108C23.3963 18.108 23.1323 18 22.9403 17.784C22.7483 17.568 22.6523 17.286 22.6523 16.938V6.372C22.6523 6.024 22.7543 5.748 22.9583 5.544C23.1623 5.328 23.4323 5.22 23.7683 5.22C24.1403 5.22 24.4283 5.358 24.6323 5.634L31.1843 14.148V6.372C31.1843 6.024 31.2803 5.748 31.4723 5.544C31.6763 5.328 31.9403 5.22 32.2643 5.22Z" fill="#414141" fill-opacity="0.4"/>
</svg>
