<svg width="64" height="64" viewBox="0 0 64 64" fill="none" xmlns="http://www.w3.org/2000/svg">
<path fill-rule="evenodd" clip-rule="evenodd" d="M43.2001 43L20.8001 43C20.3582 43 20.0001 42.6419 20.0001 42.2L20.0001 31.4142C20.0001 30.5087 19.6403 29.6403 19.0001 29C18.3598 28.3597 17.4914 28 16.5858 28L16.0001 28C14.8955 28 14.0001 27.1046 14.0001 26L14.0001 21.6708C14.0001 17.8071 16.7598 14.4914 20.5879 13.968C24.1649 13.4789 28.5485 13 32 13C35.4516 13 39.8352 13.4789 43.4123 13.968C47.2403 14.4914 50.0001 17.8071 50.0001 21.6708L50.0001 26C50.0001 27.1046 49.1046 28 48.0001 28L47.4143 28C46.5088 28 45.6403 28.3597 45.0001 29C44.3598 29.6403 44.0001 30.5087 44.0001 31.4142L44.0001 42.2C44.0001 42.6419 43.6419 43 43.2001 43ZM38.3465 22.0909C38.475 22.1442 38.5917 22.2223 38.6899 22.3207C39.0935 22.7242 39.0935 23.4039 38.6899 23.8074L33.4973 29L38.6899 34.1927C38.7882 34.291 38.8662 34.4077 38.9194 34.5361C38.9726 34.6646 39 34.8023 39 34.9413C39 35.0803 38.9726 35.218 38.9194 35.3464C38.8662 35.4749 38.7882 35.5916 38.6899 35.6899C38.5916 35.7882 38.4749 35.8662 38.3465 35.9194C38.218 35.9726 38.0803 36 37.9413 36C37.8023 36 37.6646 35.9726 37.5361 35.9194C37.4077 35.8662 37.291 35.7882 37.1927 35.6899L32 30.4973L26.8074 35.6899C26.7091 35.7882 26.5924 35.8662 26.4639 35.9194C26.3355 35.9726 26.1978 36 26.0588 36C25.9197 36 25.782 35.9726 25.6536 35.9194C25.5251 35.8662 25.4084 35.7882 25.3101 35.6899C25.2118 35.5916 25.1338 35.4749 25.0806 35.3464C25.0274 35.218 25 35.0803 25 34.9413C25 34.8023 25.0274 34.6646 25.0806 34.5361C25.1338 34.4077 25.2118 34.291 25.3101 34.1927L30.5028 29L25.3101 23.8074C25.2118 23.7091 25.1338 23.5923 25.0806 23.4639C25.0274 23.3354 25 23.1978 25 23.0587C25 22.9197 25.0274 22.782 25.0806 22.6536C25.1338 22.5251 25.2118 22.4084 25.3101 22.3101C25.4084 22.2118 25.5251 22.1338 25.6536 22.0806C25.7821 22.0274 25.9197 22 26.0588 22C26.1978 22 26.3355 22.0274 26.4639 22.0806C26.5924 22.1338 26.7091 22.2118 26.8074 22.3101L32 27.5028L37.1927 22.3207C37.2909 22.2223 37.4076 22.1442 37.5361 22.0909C37.6645 22.0376 37.8022 22.0102 37.9413 22.0102C38.0804 22.0102 38.2181 22.0376 38.3465 22.0909Z" fill="#DC3149"/>
<path d="M45 45L19 45C17.8955 45 17 45.8955 17 47L17 49C17 50.1046 17.8955 51 19 51L45 51C46.1046 51 47 50.1046 47 49L47 47C47 45.8955 46.1046 45 45 45Z" fill="#DC3149"/>
<path d="M16 30L14 30C12.8955 30 12 30.8955 12 32L12 46.5C12 47.3285 12.6716 48 13.5 48C14.3285 48 15 47.3285 15 46.5L15 46.1082C15 44.8492 15.8057 43.7315 17 43.3334C17.5972 43.1343 18 42.5754 18 41.9459L18 32C18 30.8955 17.1046 30 16 30Z" fill="#DC3149"/>
<path d="M48 30L50 30C51.1046 30 52 30.8955 52 32L52 46.5C52 47.3285 51.3285 48 50.5 48C49.6716 48 49 47.3285 49 46.5L49 46.1082C49 44.8492 48.1944 43.7315 47 43.3334C46.4028 43.1343 46 42.5754 46 41.946L46 32C46 30.8955 46.8955 30 48 30Z" fill="#DC3149"/>
</svg>
