<svg width="64" height="64" viewBox="0 0 64 64" fill="none" xmlns="http://www.w3.org/2000/svg">
<path d="M20.8001 43L43.2001 43C43.6419 43 44.0001 42.6419 44.0001 42.2L44.0001 31.4142C44.0001 30.5087 44.3598 29.6403 45.0001 29C45.6403 28.3597 46.5088 28 47.4143 28L48.0001 28C49.1046 28 50.0001 27.1046 50.0001 26L50.0001 21.6708C50.0001 17.8071 47.2403 14.4914 43.4123 13.968C39.8352 13.4789 35.4516 13 32 13C28.5485 13 24.1649 13.4789 20.5879 13.968C16.7598 14.4914 14.0001 17.8071 14.0001 21.6708L14.0001 26C14.0001 27.1046 14.8955 28 16.0001 28L16.5858 28C17.4914 28 18.3598 28.3597 19.0001 29C19.6403 29.6403 20.0001 30.5087 20.0001 31.4142L20.0001 42.2C20.0001 42.6419 20.3582 43 20.8001 43Z" fill="#414141" fill-opacity="0.6"/>
<path d="M45 45L19 45C17.8955 45 17 45.8955 17 47L17 49C17 50.1046 17.8955 51 19 51L45 51C46.1046 51 47 50.1046 47 49L47 47C47 45.8955 46.1046 45 45 45Z" fill="#414141" fill-opacity="0.6"/>
<path d="M16 30L14 30C12.8955 30 12 30.8955 12 32L12 46.5C12 47.3285 12.6716 48 13.5 48C14.3285 48 15 47.3285 15 46.5L15 46.1082C15 44.8492 15.8057 43.7315 17 43.3334C17.5972 43.1343 18 42.5754 18 41.9459L18 32C18 30.8955 17.1046 30 16 30Z" fill="#414141" fill-opacity="0.6"/>
<path d="M48 30L50 30C51.1046 30 52 30.8955 52 32L52 46.5C52 47.3285 51.3285 48 50.5 48C49.6716 48 49 47.3285 49 46.5L49 46.1082C49 44.8492 48.1944 43.7315 47 43.3334C46.4028 43.1343 46 42.5754 46 41.946L46 32C46 30.8955 46.8955 30 48 30Z" fill="#414141" fill-opacity="0.6"/>
</svg>
