<svg width="64" height="64" viewBox="0 0 64 64" fill="none" xmlns="http://www.w3.org/2000/svg">
<path fill-rule="evenodd" clip-rule="evenodd" d="M43.2 43L20.8 43C20.3582 43 20 42.6418 20 42.2L20 31.4142C20 30.5087 19.6403 29.6403 19 29C18.3597 28.3597 17.4913 28 16.5858 28L16 28C14.8955 28 14 27.1046 14 26L14 21.6707C14 17.8071 16.7598 14.4914 20.5878 13.968C24.1649 13.4789 28.5484 13 32 13C35.4516 13 39.8352 13.4789 43.4122 13.968C47.2403 14.4914 50 17.8071 50 21.6708L50 26C50 27.1046 49.1046 28 48 28L47.4142 28C46.5087 28 45.6403 28.3597 45 29C44.3597 29.6403 44 30.5087 44 31.4142L44 42.2C44 42.6418 43.6419 43 43.2 43ZM25.53 29.7L29 33.17L38.88 23.3C39.067 23.113 39.3206 23.008 39.585 23.008C39.8494 23.008 40.103 23.113 40.29 23.3C40.477 23.487 40.582 23.7406 40.582 24.005C40.582 24.2694 40.477 24.523 40.29 24.71L29.71 35.29C29.32 35.68 28.69 35.68 28.3 35.29L24.12 31.11C24.0274 31.0174 23.954 30.9075 23.9039 30.7866C23.8538 30.6656 23.828 30.5359 23.828 30.405C23.828 30.1406 23.933 29.887 24.12 29.7C24.307 29.513 24.5606 29.408 24.825 29.408C25.0894 29.408 25.343 29.513 25.53 29.7Z" fill="#007AB3"/>
<path d="M45 45L19 45C17.8954 45 17 45.8954 17 47L17 49C17 50.1046 17.8954 51 19 51L45 51C46.1046 51 47 50.1046 47 49L47 47C47 45.8954 46.1046 45 45 45Z" fill="#007AB3"/>
<path d="M16 30L14 30C12.8954 30 12 30.8954 12 32L12 46.5C12 47.3284 12.6716 48 13.5 48C14.3284 48 15 47.3284 15 46.5L15 46.1082C15 44.8492 15.8056 43.7315 17 43.3333C17.5972 43.1343 18 42.5754 18 41.9459L18 32C18 30.8954 17.1046 30 16 30Z" fill="#007AB3"/>
<path d="M48 30L50 30C51.1046 30 52 30.8954 52 32L52 46.5C52 47.3284 51.3284 48 50.5 48C49.6716 48 49 47.3284 49 46.5L49 46.1082C49 44.8492 48.1944 43.7315 47 43.3333C46.4028 43.1343 46 42.5754 46 41.9459L46 32C46 30.8954 46.8954 30 48 30Z" fill="#007AB3"/>
</svg>
